ffmpeg started on 2026-04-09 at 14:58:03
Report written to "D:\Convert\FFMetrics\reports\ssim_report-6.txt"
Log level: 32
Command line:
ffmpeg -hide_banner -nostdin -r 24000/1001 -i "F:\\Convert\\files\\[DC] Make Heroine ga Oosugiru - 07_Telegram_HEVC(312).mkv" -r 24000/1001 -i "F:\\Convert\\files\\[DC] Make Heroine ga Oosugiru - 07_Telegram.mp4" -lavfi "[0:v]settb=AVTB,setpts=PTS-STARTPTS,format=pix_fmts=yuv420p10le,fps=24000/1001,scale=1920:1080:flags=lanczos:param0=3:out_range=limited:out_color_matrix=bt709:out_chroma_loc=left,setsar=1/1,setdar=(1920/1080)*(1/1),colorspace=format=yuv420p10:range=tv:primaries=bt709:trc=bt709:space=bt709:fast=0[main];[1:v]settb=AVTB,setpts=PTS-STARTPTS,format=pix_fmts=yuv420p,fps=24000/1001,scale=1920:1080:flags=lanczos:param0=3:out_range=limited:out_color_matrix=bt709:out_chroma_loc=left,setsar=1/1,setdar=(1920/1080)*(1/1),colorspace=format=yuv420p:range=tv:primaries=bt709:trc=bt709:space=bt709:fast=0[ref];[main][ref]ssim=eof_action=endall:stats_file='D\\:/Convert/FFMetrics/logs/ssim_logfile-6.txt'" -f null -
Input #0, matroska,webm, from 'F:\Convert\files\[DC] Make Heroine ga Oosugiru - 07_Telegram_HEVC(312).mkv':
  Metadata:
    COMPATIBLE_BRANDS: isomiso2avc1mp41
    MAJOR_BRAND     : isom
    MINOR_VERSION   : 512
    ENCODER         : Lavf61.7.100
  Duration: 00:24:06.79, start: -0.021000, bitrate: 987 kb/s
  Stream #0:0: Video: hevc (Main 10), yuv420p10le(tv, bt709, progressive), 1920x1080 [SAR 1:1 DAR 16:9], 23.98 fps, 23.98 tbr, 1k tbn (default)
      Metadata:
        HANDLER_NAME    : VideoHandler
        VENDOR_ID       : [0][0][0][0]
        ENCODER         : Lavc61.19.100 libx265
        BPS             : 790639
        DURATION        : 00:24:06.569708333
        NUMBER_OF_FRAMES: 34683
        NUMBER_OF_BYTES : 142964273
        _STATISTICS_WRITING_APP: mkvpropedit v94.0 ('Initiate') 64-bit
        _STATISTICS_WRITING_DATE_UTC: 2026-04-09 08:38:31
        _STATISTICS_TAGS: BPS DURATION NUMBER_OF_FRAMES NUMBER_OF_BYTES
  Stream #0:1: Audio: aac (LC), 48000 Hz, stereo, fltp (default)
      Metadata:
        HANDLER_NAME    : SoundHandler
        VENDOR_ID       : [0][0][0][0]
        ENCODER         : Lavc61.19.100 aac
        BPS             : 193194
        DURATION        : 00:24:06.784000000
        NUMBER_OF_FRAMES: 67819
        NUMBER_OF_BYTES : 34938755
        _STATISTICS_WRITING_APP: mkvpropedit v94.0 ('Initiate') 64-bit
        _STATISTICS_WRITING_DATE_UTC: 2026-04-09 08:38:31
        _STATISTICS_TAGS: BPS DURATION NUMBER_OF_FRAMES NUMBER_OF_BYTES
Input #1, mov,mp4,m4a,3gp,3g2,mj2, from 'F:\Convert\files\[DC] Make Heroine ga Oosugiru - 07_Telegram.mp4':
  Metadata:
    major_brand     : isom
    minor_version   : 512
    compatible_brands: isomiso2avc1mp41
    encoder         : Lavf60.16.100
  Duration: 00:24:06.74, start: 0.000000, bitrate: 3764 kb/s
  Stream #1:0[0x1](und): Video: h264 (High) (avc1 / 0x31637661), yuv420p(tv, bt709, progressive), 1920x1080 [SAR 1:1 DAR 16:9], 3616 kb/s, 23.98 fps, 23.98 tbr, 24k tbn (default)
      Metadata:
        handler_name    : VideoHandler
        vendor_id       : [0][0][0][0]
        encoder         : Lavc60.31.102 h264_qsv
  Stream #1:1[0x2](und): Audio: aac (HE-AACv2) (mp4a / 0x6134706D), 48000 Hz, stereo, fltp, 144 kb/s (default)
      Metadata:
        handler_name    : SoundHandler
        vendor_id       : [0][0][0][0]
Stream mapping:
  Stream #0:0 (hevc) -> settb:default
  Stream #1:0 (h264) -> settb:default
  ssim:default -> Stream #0:0 (wrapped_avframe)
  Stream #0:1 -> #0:1 (aac (native) -> pcm_s16le (native))
Output #0, null, to 'pipe:':
  Metadata:
    COMPATIBLE_BRANDS: isomiso2avc1mp41
    MAJOR_BRAND     : isom
    MINOR_VERSION   : 512
    encoder         : Lavf61.7.100
  Stream #0:0: Video: wrapped_avframe, yuv420p10le(tv, bt709, progressive), 1920x1080 [SAR 1:1 DAR 16:9], q=2-31, 200 kb/s, 23.98 fps, 23.98 tbn
      Metadata:
        encoder         : Lavc61.19.100 wrapped_avframe
  Stream #0:1: Audio: pcm_s16le, 48000 Hz, stereo, s16, 1536 kb/s (default)
      Metadata:
        HANDLER_NAME    : SoundHandler
        VENDOR_ID       : [0][0][0][0]
        _STATISTICS_TAGS: BPS DURATION NUMBER_OF_FRAMES NUMBER_OF_BYTES
        BPS             : 193194
        DURATION        : 00:24:06.784000000
        NUMBER_OF_FRAMES: 67819
        NUMBER_OF_BYTES : 34938755
        _STATISTICS_WRITING_APP: mkvpropedit v94.0 ('Initiate') 64-bit
        _STATISTICS_WRITING_DATE_UTC: 2026-04-09 08:38:31
        encoder         : Lavc61.19.100 pcm_s16le
frame=  122 fps=0.0 q=-0.0 size=N/A time=00:00:05.08 bitrate=N/A speed=9.78x    frame=  293 fps=284 q=-0.0 size=N/A time=00:00:12.22 bitrate=N/A speed=11.8x    frame=  486 fps=312 q=-0.0 size=N/A time=00:00:20.27 bitrate=N/A speed=  13x    frame=  661 fps=320 q=-0.0 size=N/A time=00:00:27.56 bitrate=N/A speed=13.3x    frame=  846 fps=328 q=-0.0 size=N/A time=00:00:35.28 bitrate=N/A speed=13.7x    frame=  989 fps=318 q=-0.0 size=N/A time=00:00:41.24 bitrate=N/A speed=13.3x    frame= 1138 fps=315 q=-0.0 size=N/A time=00:00:47.46 bitrate=N/A speed=13.1x    frame= 1293 fps=313 q=-0.0 size=N/A time=00:00:53.92 bitrate=N/A speed=13.1x    frame= 1444 fps=311 q=-0.0 size=N/A time=00:01:00.22 bitrate=N/A speed=  13x    frame= 1580 fps=306 q=-0.0 size=N/A time=00:01:05.89 bitrate=N/A speed=12.8x    frame= 1724 fps=304 q=-0.0 size=N/A time=00:01:11.90 bitrate=N/A speed=12.7x    frame= 1879 fps=304 q=-0.0 size=N/A time=00:01:18.36 bitrate=N/A speed=12.7x    frame= 2046 fps=305 q=-0.0 size=N/A time=00:01:25.33 bitrate=N/A speed=12.7x    frame= 2151 fps=298 q=-0.0 size=N/A time=00:01:29.71 bitrate=N/A speed=12.4x    frame= 2306 fps=298 q=-0.0 size=N/A time=00:01:36.17 bitrate=N/A speed=12.4x    frame= 2448 fps=296 q=-0.0 size=N/A time=00:01:42.10 bitrate=N/A speed=12.4x    frame= 2564 fps=292 q=-0.0 size=N/A time=00:01:46.94 bitrate=N/A speed=12.2x    frame= 2726 fps=294 q=-0.0 size=N/A time=00:01:53.69 bitrate=N/A speed=12.3x    frame= 2898 fps=296 q=-0.0 size=N/A time=00:02:00.87 bitrate=N/A speed=12.3x    frame= 3071 fps=298 q=-0.0 size=N/A time=00:02:08.08 bitrate=N/A speed=12.4x    frame= 3250 fps=300 q=-0.0 size=N/A time=00:02:15.55 bitrate=N/A speed=12.5x    frame= 3438 fps=303 q=-0.0 size=N/A time=00:02:23.39 bitrate=N/A speed=12.6x    frame= 3622 fps=305 q=-0.0 size=N/A time=00:02:31.06 bitrate=N/A speed=12.7x    frame= 3811 fps=308 q=-0.0 size=N/A time=00:02:38.95 bitrate=N/A speed=12.8x    frame= 4001 fps=310 q=-0.0 size=N/A time=00:02:46.87 bitrate=N/A speed=12.9x    frame= 4174 fps=311 q=-0.0 size=N/A time=00:02:54.09 bitrate=N/A speed=  13x    frame= 4348 fps=312 q=-0.0 size=N/A time=00:03:01.34 bitrate=N/A speed=  13x    frame= 4528 fps=313 q=-0.0 size=N/A time=00:03:08.85 bitrate=N/A speed=13.1x    frame= 4712 fps=315 q=-0.0 size=N/A time=00:03:16.52 bitrate=N/A speed=13.1x    frame= 4894 fps=316 q=-0.0 size=N/A time=00:03:24.12 bitrate=N/A speed=13.2x    frame= 5080 fps=318 q=-0.0 size=N/A time=00:03:31.87 bitrate=N/A speed=13.3x    frame= 5268 fps=319 q=-0.0 size=N/A time=00:03:39.71 bitrate=N/A speed=13.3x    frame= 5442 fps=320 q=-0.0 size=N/A time=00:03:46.97 bitrate=N/A speed=13.3x    frame= 5623 fps=321 q=-0.0 size=N/A time=00:03:54.52 bitrate=N/A speed=13.4x    frame= 5808 fps=322 q=-0.0 size=N/A time=00:04:02.24 bitrate=N/A speed=13.4x    frame= 5990 fps=323 q=-0.0 size=N/A time=00:04:09.83 bitrate=N/A speed=13.5x    frame= 6164 fps=323 q=-0.0 size=N/A time=00:04:17.09 bitrate=N/A speed=13.5x    frame= 6340 fps=324 q=-0.0 size=N/A time=00:04:24.43 bitrate=N/A speed=13.5x    frame= 6518 fps=324 q=-0.0 size=N/A time=00:04:31.85 bitrate=N/A speed=13.5x    frame= 6701 fps=325 q=-0.0 size=N/A time=00:04:39.48 bitrate=N/A speed=13.5x    frame= 6890 fps=326 q=-0.0 size=N/A time=00:04:47.37 bitrate=N/A speed=13.6x    frame= 7068 fps=326 q=-0.0 size=N/A time=00:04:54.79 bitrate=N/A speed=13.6x    frame= 7233 fps=326 q=-0.0 size=N/A time=00:05:01.67 bitrate=N/A speed=13.6x    frame= 7413 fps=327 q=-0.0 size=N/A time=00:05:09.18 bitrate=N/A speed=13.6x    frame= 7581 fps=327 q=-0.0 size=N/A time=00:05:16.19 bitrate=N/A speed=13.6x    frame= 7763 fps=327 q=-0.0 size=N/A time=00:05:23.78 bitrate=N/A speed=13.7x    frame= 7944 fps=328 q=-0.0 size=N/A time=00:05:31.33 bitrate=N/A speed=13.7x    frame= 8117 fps=328 q=-0.0 size=N/A time=00:05:38.54 bitrate=N/A speed=13.7x    frame= 8291 fps=328 q=-0.0 size=N/A time=00:05:45.80 bitrate=N/A speed=13.7x    frame= 8476 fps=329 q=-0.0 size=N/A time=00:05:53.51 bitrate=N/A speed=13.7x    frame= 8655 fps=329 q=-0.0 size=N/A time=00:06:00.98 bitrate=N/A speed=13.7x    frame= 8839 fps=330 q=-0.0 size=N/A time=00:06:08.65 bitrate=N/A speed=13.8x    frame= 9031 fps=330 q=-0.0 size=N/A time=00:06:16.66 bitrate=N/A speed=13.8x    frame= 9215 fps=331 q=-0.0 size=N/A time=00:06:24.34 bitrate=N/A speed=13.8x    frame= 9403 fps=331 q=-0.0 size=N/A time=00:06:32.18 bitrate=N/A speed=13.8x    frame= 9584 fps=332 q=-0.0 size=N/A time=00:06:39.73 bitrate=N/A speed=13.8x    frame= 9767 fps=332 q=-0.0 size=N/A time=00:06:47.36 bitrate=N/A speed=13.9x    frame= 9951 fps=333 q=-0.0 size=N/A time=00:06:55.03 bitrate=N/A speed=13.9x    frame=10137 fps=333 q=-0.0 size=N/A time=00:07:02.79 bitrate=N/A speed=13.9x    frame=10321 fps=334 q=-0.0 size=N/A time=00:07:10.47 bitrate=N/A speed=13.9x    frame=10498 fps=334 q=-0.0 size=N/A time=00:07:17.85 bitrate=N/A speed=13.9x    frame=10684 fps=334 q=-0.0 size=N/A time=00:07:25.61 bitrate=N/A speed=13.9x    frame=10869 fps=335 q=-0.0 size=N/A time=00:07:33.32 bitrate=N/A speed=  14x    frame=11050 fps=335 q=-0.0 size=N/A time=00:07:40.87 bitrate=N/A speed=  14x    frame=11238 fps=335 q=-0.0 size=N/A time=00:07:48.71 bitrate=N/A speed=  14x    frame=11417 fps=335 q=-0.0 size=N/A time=00:07:56.18 bitrate=N/A speed=  14x    frame=11601 fps=336 q=-0.0 size=N/A time=00:08:03.85 bitrate=N/A speed=  14x    frame=11792 fps=336 q=-0.0 size=N/A time=00:08:11.82 bitrate=N/A speed=  14x    frame=11980 fps=337 q=-0.0 size=N/A time=00:08:19.66 bitrate=N/A speed=  14x    frame=12165 fps=337 q=-0.0 size=N/A time=00:08:27.38 bitrate=N/A speed=14.1x    frame=12348 fps=337 q=-0.0 size=N/A time=00:08:35.01 bitrate=N/A speed=14.1x    frame=12536 fps=338 q=-0.0 size=N/A time=00:08:42.85 bitrate=N/A speed=14.1x    frame=12715 fps=338 q=-0.0 size=N/A time=00:08:50.32 bitrate=N/A speed=14.1x    frame=12886 fps=338 q=-0.0 size=N/A time=00:08:57.45 bitrate=N/A speed=14.1x    frame=13071 fps=338 q=-0.0 size=N/A time=00:09:05.16 bitrate=N/A speed=14.1x    frame=13248 fps=338 q=-0.0 size=N/A time=00:09:12.55 bitrate=N/A speed=14.1x    frame=13430 fps=338 q=-0.0 size=N/A time=00:09:20.14 bitrate=N/A speed=14.1x    frame=13610 fps=338 q=-0.0 size=N/A time=00:09:27.65 bitrate=N/A speed=14.1x    frame=13796 fps=339 q=-0.0 size=N/A time=00:09:35.40 bitrate=N/A speed=14.1x    frame=13982 fps=339 q=-0.0 size=N/A time=00:09:43.16 bitrate=N/A speed=14.1x    frame=14154 fps=339 q=-0.0 size=N/A time=00:09:50.33 bitrate=N/A speed=14.1x    frame=14334 fps=339 q=-0.0 size=N/A time=00:09:57.84 bitrate=N/A speed=14.1x    frame=14519 fps=339 q=-0.0 size=N/A time=00:10:05.56 bitrate=N/A speed=14.1x    frame=14692 fps=339 q=-0.0 size=N/A time=00:10:12.77 bitrate=N/A speed=14.1x    frame=14876 fps=339 q=-0.0 size=N/A time=00:10:20.45 bitrate=N/A speed=14.2x    frame=15055 fps=340 q=-0.0 size=N/A time=00:10:27.91 bitrate=N/A speed=14.2x    frame=15221 fps=339 q=-0.0 size=N/A time=00:10:34.84 bitrate=N/A speed=14.1x    frame=15399 fps=339 q=-0.0 size=N/A time=00:10:42.26 bitrate=N/A speed=14.2x    frame=15581 fps=339 q=-0.0 size=N/A time=00:10:49.85 bitrate=N/A speed=14.2x    frame=15762 fps=340 q=-0.0 size=N/A time=00:10:57.40 bitrate=N/A speed=14.2x    frame=15955 fps=340 q=-0.0 size=N/A time=00:11:05.45 bitrate=N/A speed=14.2x    frame=16137 fps=340 q=-0.0 size=N/A time=00:11:13.04 bitrate=N/A speed=14.2x    frame=16322 fps=340 q=-0.0 size=N/A time=00:11:20.76 bitrate=N/A speed=14.2x    frame=16499 fps=340 q=-0.0 size=N/A time=00:11:28.14 bitrate=N/A speed=14.2x    frame=16685 fps=341 q=-0.0 size=N/A time=00:11:35.90 bitrate=N/A speed=14.2x    frame=16867 fps=341 q=-0.0 size=N/A time=00:11:43.49 bitrate=N/A speed=14.2x    frame=17055 fps=341 q=-0.0 size=N/A time=00:11:51.33 bitrate=N/A speed=14.2x    frame=17235 fps=341 q=-0.0 size=N/A time=00:11:58.84 bitrate=N/A speed=14.2x    frame=17423 fps=341 q=-0.0 size=N/A time=00:12:06.68 bitrate=N/A speed=14.2x    frame=17602 fps=341 q=-0.0 size=N/A time=00:12:14.15 bitrate=N/A speed=14.2x    frame=17765 fps=341 q=-0.0 size=N/A time=00:12:20.94 bitrate=N/A speed=14.2x    frame=17952 fps=341 q=-0.0 size=N/A time=00:12:28.74 bitrate=N/A speed=14.2x    frame=18134 fps=341 q=-0.0 size=N/A time=00:12:36.33 bitrate=N/A speed=14.2x    frame=18308 fps=341 q=-0.0 size=N/A time=00:12:43.59 bitrate=N/A speed=14.2x    frame=18495 fps=342 q=-0.0 size=N/A time=00:12:51.39 bitrate=N/A speed=14.2x    frame=18681 fps=342 q=-0.0 size=N/A time=00:12:59.15 bitrate=N/A speed=14.3x    frame=18868 fps=342 q=-0.0 size=N/A time=00:13:06.95 bitrate=N/A speed=14.3x    frame=19053 fps=342 q=-0.0 size=N/A time=00:13:14.66 bitrate=N/A speed=14.3x    frame=19238 fps=342 q=-0.0 size=N/A time=00:13:22.38 bitrate=N/A speed=14.3x    frame=19418 fps=342 q=-0.0 size=N/A time=00:13:29.89 bitrate=N/A speed=14.3x    frame=19601 fps=342 q=-0.0 size=N/A time=00:13:37.52 bitrate=N/A speed=14.3x    frame=19787 fps=343 q=-0.0 size=N/A time=00:13:45.28 bitrate=N/A speed=14.3x    frame=19966 fps=343 q=-0.0 size=N/A time=00:13:52.74 bitrate=N/A speed=14.3x    frame=20149 fps=343 q=-0.0 size=N/A time=00:14:00.38 bitrate=N/A speed=14.3x    frame=20334 fps=343 q=-0.0 size=N/A time=00:14:08.09 bitrate=N/A speed=14.3x    frame=20507 fps=343 q=-0.0 size=N/A time=00:14:15.31 bitrate=N/A speed=14.3x    frame=20677 fps=343 q=-0.0 size=N/A time=00:14:22.40 bitrate=N/A speed=14.3x    frame=20867 fps=343 q=-0.0 size=N/A time=00:14:30.32 bitrate=N/A speed=14.3x    frame=21046 fps=343 q=-0.0 size=N/A time=00:14:37.79 bitrate=N/A speed=14.3x    frame=21226 fps=343 q=-0.0 size=N/A time=00:14:45.30 bitrate=N/A speed=14.3x    frame=21415 fps=343 q=-0.0 size=N/A time=00:14:53.18 bitrate=N/A speed=14.3x    frame=21589 fps=343 q=-0.0 size=N/A time=00:15:00.44 bitrate=N/A speed=14.3x    frame=21769 fps=343 q=-0.0 size=N/A time=00:15:07.94 bitrate=N/A speed=14.3x    frame=21958 fps=343 q=-0.0 size=N/A time=00:15:15.83 bitrate=N/A speed=14.3x    frame=22142 fps=343 q=-0.0 size=N/A time=00:15:23.50 bitrate=N/A speed=14.3x    frame=22330 fps=344 q=-0.0 size=N/A time=00:15:31.34 bitrate=N/A speed=14.3x    frame=22517 fps=344 q=-0.0 size=N/A time=00:15:39.14 bitrate=N/A speed=14.3x    frame=22703 fps=344 q=-0.0 size=N/A time=00:15:46.90 bitrate=N/A speed=14.3x    frame=22878 fps=344 q=-0.0 size=N/A time=00:15:54.20 bitrate=N/A speed=14.3x    frame=23074 fps=344 q=-0.0 size=N/A time=00:16:02.37 bitrate=N/A speed=14.4x    frame=23258 fps=344 q=-0.0 size=N/A time=00:16:10.05 bitrate=N/A speed=14.4x    frame=23444 fps=344 q=-0.0 size=N/A time=00:16:17.81 bitrate=N/A speed=14.4x    frame=23633 fps=345 q=-0.0 size=N/A time=00:16:25.69 bitrate=N/A speed=14.4x    frame=23815 fps=345 q=-0.0 size=N/A time=00:16:33.28 bitrate=N/A speed=14.4x    frame=23989 fps=345 q=-0.0 size=N/A time=00:16:40.54 bitrate=N/A speed=14.4x    frame=24172 fps=345 q=-0.0 size=N/A time=00:16:48.17 bitrate=N/A speed=14.4x    frame=24362 fps=345 q=-0.0 size=N/A time=00:16:56.09 bitrate=N/A speed=14.4x    frame=24547 fps=345 q=-0.0 size=N/A time=00:17:03.81 bitrate=N/A speed=14.4x    frame=24740 fps=345 q=-0.0 size=N/A time=00:17:11.86 bitrate=N/A speed=14.4x    frame=24924 fps=345 q=-0.0 size=N/A time=00:17:19.53 bitrate=N/A speed=14.4x    frame=25113 fps=345 q=-0.0 size=N/A time=00:17:27.42 bitrate=N/A speed=14.4x    frame=25298 fps=345 q=-0.0 size=N/A time=00:17:35.13 bitrate=N/A speed=14.4x    frame=25483 fps=346 q=-0.0 size=N/A time=00:17:42.85 bitrate=N/A speed=14.4x    frame=25666 fps=346 q=-0.0 size=N/A time=00:17:50.48 bitrate=N/A speed=14.4x    frame=25854 fps=346 q=-0.0 size=N/A time=00:17:58.32 bitrate=N/A speed=14.4x    frame=26034 fps=346 q=-0.0 size=N/A time=00:18:05.83 bitrate=N/A speed=14.4x    frame=26224 fps=346 q=-0.0 size=N/A time=00:18:13.75 bitrate=N/A speed=14.4x    frame=26410 fps=346 q=-0.0 size=N/A time=00:18:21.51 bitrate=N/A speed=14.4x    frame=26593 fps=346 q=-0.0 size=N/A time=00:18:29.14 bitrate=N/A speed=14.4x    frame=26780 fps=346 q=-0.0 size=N/A time=00:18:36.94 bitrate=N/A speed=14.4x    frame=26956 fps=346 q=-0.0 size=N/A time=00:18:44.28 bitrate=N/A speed=14.4x    frame=27127 fps=346 q=-0.0 size=N/A time=00:18:51.42 bitrate=N/A speed=14.4x    frame=27300 fps=346 q=-0.0 size=N/A time=00:18:58.63 bitrate=N/A speed=14.4x    frame=27482 fps=346 q=-0.0 size=N/A time=00:19:06.22 bitrate=N/A speed=14.4x    frame=27653 fps=346 q=-0.0 size=N/A time=00:19:13.36 bitrate=N/A speed=14.4x    frame=27832 fps=346 q=-0.0 size=N/A time=00:19:20.82 bitrate=N/A speed=14.4x    frame=28020 fps=346 q=-0.0 size=N/A time=00:19:28.66 bitrate=N/A speed=14.4x    frame=28205 fps=346 q=-0.0 size=N/A time=00:19:36.38 bitrate=N/A speed=14.4x    frame=28387 fps=346 q=-0.0 size=N/A time=00:19:43.97 bitrate=N/A speed=14.4x    frame=28573 fps=346 q=-0.0 size=N/A time=00:19:51.73 bitrate=N/A speed=14.4x    frame=28754 fps=346 q=-0.0 size=N/A time=00:19:59.28 bitrate=N/A speed=14.4x    frame=28922 fps=346 q=-0.0 size=N/A time=00:20:06.28 bitrate=N/A speed=14.4x    frame=29084 fps=346 q=-0.0 size=N/A time=00:20:13.04 bitrate=N/A speed=14.4x    frame=29263 fps=346 q=-0.0 size=N/A time=00:20:20.51 bitrate=N/A speed=14.4x    frame=29435 fps=346 q=-0.0 size=N/A time=00:20:27.68 bitrate=N/A speed=14.4x    frame=29601 fps=346 q=-0.0 size=N/A time=00:20:34.60 bitrate=N/A speed=14.4x    frame=29771 fps=346 q=-0.0 size=N/A time=00:20:41.69 bitrate=N/A speed=14.4x    frame=29942 fps=345 q=-0.0 size=N/A time=00:20:48.83 bitrate=N/A speed=14.4x    frame=30098 fps=345 q=-0.0 size=N/A time=00:20:55.33 bitrate=N/A speed=14.4x    frame=30269 fps=345 q=-0.0 size=N/A time=00:21:02.46 bitrate=N/A speed=14.4x    frame=30448 fps=345 q=-0.0 size=N/A time=00:21:09.93 bitrate=N/A speed=14.4x    frame=30637 fps=345 q=-0.0 size=N/A time=00:21:17.81 bitrate=N/A speed=14.4x    frame=30826 fps=345 q=-0.0 size=N/A time=00:21:25.70 bitrate=N/A speed=14.4x    frame=31009 fps=345 q=-0.0 size=N/A time=00:21:33.33 bitrate=N/A speed=14.4x    frame=31191 fps=346 q=-0.0 size=N/A time=00:21:40.92 bitrate=N/A speed=14.4x    frame=31374 fps=346 q=-0.0 size=N/A time=00:21:48.55 bitrate=N/A speed=14.4x    frame=31555 fps=346 q=-0.0 size=N/A time=00:21:56.10 bitrate=N/A speed=14.4x    frame=31739 fps=346 q=-0.0 size=N/A time=00:22:03.78 bitrate=N/A speed=14.4x    frame=31911 fps=346 q=-0.0 size=N/A time=00:22:10.95 bitrate=N/A speed=14.4x    frame=32088 fps=346 q=-0.0 size=N/A time=00:22:18.33 bitrate=N/A speed=14.4x    frame=32267 fps=346 q=-0.0 size=N/A time=00:22:25.80 bitrate=N/A speed=14.4x    frame=32450 fps=346 q=-0.0 size=N/A time=00:22:33.43 bitrate=N/A speed=14.4x    frame=32633 fps=346 q=-0.0 size=N/A time=00:22:41.06 bitrate=N/A speed=14.4x    frame=32773 fps=345 q=-0.0 size=N/A time=00:22:46.90 bitrate=N/A speed=14.4x    frame=32934 fps=345 q=-0.0 size=N/A time=00:22:53.62 bitrate=N/A speed=14.4x    frame=33109 fps=345 q=-0.0 size=N/A time=00:23:00.92 bitrate=N/A speed=14.4x    frame=33288 fps=345 q=-0.0 size=N/A time=00:23:08.38 bitrate=N/A speed=14.4x    frame=33460 fps=345 q=-0.0 size=N/A time=00:23:15.56 bitrate=N/A speed=14.4x    frame=33606 fps=345 q=-0.0 size=N/A time=00:23:21.65 bitrate=N/A speed=14.4x    frame=33751 fps=344 q=-0.0 size=N/A time=00:23:27.69 bitrate=N/A speed=14.4x    frame=33879 fps=344 q=-0.0 size=N/A time=00:23:33.03 bitrate=N/A speed=14.3x    frame=34036 fps=344 q=-0.0 size=N/A time=00:23:39.58 bitrate=N/A speed=14.3x    frame=34192 fps=343 q=-0.0 size=N/A time=00:23:46.09 bitrate=N/A speed=14.3x    frame=34332 fps=343 q=-0.0 size=N/A time=00:23:51.93 bitrate=N/A speed=14.3x    frame=34462 fps=343 q=-0.0 size=N/A time=00:23:57.35 bitrate=N/A speed=14.3x    frame=34644 fps=343 q=-0.0 size=N/A time=00:24:04.94 bitrate=N/A speed=14.3x    [Parsed_ssim_16 @ 000002aa3634ee00] SSIM Y:0.994223 (22.383193) U:0.994008 (22.224472) V:0.993615 (21.948397) All:0.994086 (22.281239)
[out#0/null @ 000002aa28efdec0] video:14903KiB audio:271276KiB subtitle:0KiB other streams:0KiB global headers:0KiB muxing overhead: unknown
frame=34683 fps=343 q=-0.0 Lsize=N/A time=00:24:06.57 bitrate=N/A speed=14.3x    
